<svg width="48" height="48" viewBox="0 0 48 48" fill="none" xmlns="http://www.w3.org/2000/svg">
<mask id="path-1-inside-1_303_1477" fill="white">
<path d="M28.3114 23.6446C28.0706 23.6446 27.847 23.5784 27.6484 23.4719V23.4748C27.6484 23.8536 27.5012 24.2094 27.234 24.4758C26.9669 24.743 26.6114 24.8903 26.233 24.8903C25.9886 24.8903 25.7622 24.8224 25.5615 24.7131C25.5412 25.0597 25.4027 25.3836 25.1556 25.631C24.8884 25.8982 24.5329 26.0454 24.1542 26.0454C23.4019 26.0454 22.791 25.4541 22.747 24.7129C22.5142 24.8387 22.2511 24.9046 21.9796 24.8872C21.2396 24.8387 20.6601 24.1993 20.6601 23.4312V17.0645L19.9351 18.3205C19.659 18.8009 19.1421 19.0991 18.5856 19.0991C18.3144 19.0991 18.0465 19.028 17.8093 18.892C17.5139 18.7208 17.3025 18.4458 17.2146 18.1169C17.1263 17.7878 17.172 17.4436 17.3428 17.1486C17.343 17.1486 19.7148 13.0414 19.8595 12.7891C19.8767 12.7512 19.9257 12.6411 19.9674 12.5474C20.0072 12.4578 20.0414 12.366 20.0741 12.2736C20.7894 10.2543 22.5604 8.99998 24.6963 8.99998C27.47 8.99998 29.7266 11.4469 29.7266 14.4546L29.7268 22.2289C29.7268 22.6073 29.5798 22.9628 29.3129 23.2302C29.0457 23.4974 28.6902 23.6447 28.3114 23.6447L28.3114 23.6446ZM24.6964 9.75212C22.861 9.75212 21.3982 10.7888 20.7831 12.5251C20.7437 12.6354 20.7027 12.7457 20.6549 12.8531C20.5161 13.1643 20.5161 13.1643 20.477 13.2091L20.4718 13.2046C20.2782 13.57 19.7029 14.5663 17.9941 17.525C17.9239 17.6463 17.9052 17.7872 17.9411 17.922C17.9773 18.0567 18.0643 18.1703 18.1847 18.2398C18.5583 18.4544 19.0701 18.3159 19.283 17.9448L20.7105 15.4734C20.7958 15.3261 20.9683 15.2538 21.1337 15.2986C21.2981 15.3426 21.4124 15.4918 21.4124 15.6619V23.4314C21.4124 23.798 21.689 24.1144 22.0289 24.1368C22.225 24.1471 22.4078 24.0814 22.5451 23.9443C22.67 23.8194 22.7388 23.6531 22.7388 23.4752V18.3938C22.7388 18.186 22.9073 18.0176 23.115 18.0176C23.3228 18.0176 23.4913 18.1858 23.4913 18.3938L23.4911 24.6302C23.4911 24.9958 23.7886 25.2934 24.1543 25.2934C24.3319 25.2934 24.4987 25.2246 24.6238 25.0997C24.7487 24.9746 24.8175 24.8078 24.8175 24.6302V18.3938C24.8175 18.186 24.9857 18.0176 25.1937 18.0176C25.4015 18.0176 25.57 18.1858 25.57 18.3938L25.5697 23.4168V23.4752C25.5697 23.8406 25.8673 24.1381 26.2332 24.1381C26.4106 24.1381 26.5769 24.0691 26.7027 23.9438C26.8276 23.8191 26.8964 23.6528 26.8964 23.4749V18.3936C26.8964 18.1858 27.0646 18.0173 27.2726 18.0173C27.4804 18.0173 27.6489 18.1855 27.6489 18.3936L27.6484 22.2291C27.6484 22.595 27.946 22.8925 28.3114 22.8925C28.4893 22.8925 28.6556 22.8235 28.7805 22.6989C28.9058 22.5736 28.9744 22.4067 28.9744 22.2291L28.9746 14.4548C28.9746 11.862 27.0554 9.7522 24.6963 9.7522L24.6964 9.75212Z"/>
</mask>
<path d="M28.3114 23.6446C28.0706 23.6446 27.847 23.5784 27.6484 23.4719V23.4748C27.6484 23.8536 27.5012 24.2094 27.234 24.4758C26.9669 24.743 26.6114 24.8903 26.233 24.8903C25.9886 24.8903 25.7622 24.8224 25.5615 24.7131C25.5412 25.0597 25.4027 25.3836 25.1556 25.631C24.8884 25.8982 24.5329 26.0454 24.1542 26.0454C23.4019 26.0454 22.791 25.4541 22.747 24.7129C22.5142 24.8387 22.2511 24.9046 21.9796 24.8872C21.2396 24.8387 20.6601 24.1993 20.6601 23.4312V17.0645L19.9351 18.3205C19.659 18.8009 19.1421 19.0991 18.5856 19.0991C18.3144 19.0991 18.0465 19.028 17.8093 18.892C17.5139 18.7208 17.3025 18.4458 17.2146 18.1169C17.1263 17.7878 17.172 17.4436 17.3428 17.1486C17.343 17.1486 19.7148 13.0414 19.8595 12.7891C19.8767 12.7512 19.9257 12.6411 19.9674 12.5474C20.0072 12.4578 20.0414 12.366 20.0741 12.2736C20.7894 10.2543 22.5604 8.99998 24.6963 8.99998C27.47 8.99998 29.7266 11.4469 29.7266 14.4546L29.7268 22.2289C29.7268 22.6073 29.5798 22.9628 29.3129 23.2302C29.0457 23.4974 28.6902 23.6447 28.3114 23.6447L28.3114 23.6446ZM24.6964 9.75212C22.861 9.75212 21.3982 10.7888 20.7831 12.5251C20.7437 12.6354 20.7027 12.7457 20.6549 12.8531C20.5161 13.1643 20.5161 13.1643 20.477 13.2091L20.4718 13.2046C20.2782 13.57 19.7029 14.5663 17.9941 17.525C17.9239 17.6463 17.9052 17.7872 17.9411 17.922C17.9773 18.0567 18.0643 18.1703 18.1847 18.2398C18.5583 18.4544 19.0701 18.3159 19.283 17.9448L20.7105 15.4734C20.7958 15.3261 20.9683 15.2538 21.1337 15.2986C21.2981 15.3426 21.4124 15.4918 21.4124 15.6619V23.4314C21.4124 23.798 21.689 24.1144 22.0289 24.1368C22.225 24.1471 22.4078 24.0814 22.5451 23.9443C22.67 23.8194 22.7388 23.6531 22.7388 23.4752V18.3938C22.7388 18.186 22.9073 18.0176 23.115 18.0176C23.3228 18.0176 23.4913 18.1858 23.4913 18.3938L23.4911 24.6302C23.4911 24.9958 23.7886 25.2934 24.1543 25.2934C24.3319 25.2934 24.4987 25.2246 24.6238 25.0997C24.7487 24.9746 24.8175 24.8078 24.8175 24.6302V18.3938C24.8175 18.186 24.9857 18.0176 25.1937 18.0176C25.4015 18.0176 25.57 18.1858 25.57 18.3938L25.5697 23.4168V23.4752C25.5697 23.8406 25.8673 24.1381 26.2332 24.1381C26.4106 24.1381 26.5769 24.0691 26.7027 23.9438C26.8276 23.8191 26.8964 23.6528 26.8964 23.4749V18.3936C26.8964 18.1858 27.0646 18.0173 27.2726 18.0173C27.4804 18.0173 27.6489 18.1855 27.6489 18.3936L27.6484 22.2291C27.6484 22.595 27.946 22.8925 28.3114 22.8925C28.4893 22.8925 28.6556 22.8235 28.7805 22.6989C28.9058 22.5736 28.9744 22.4067 28.9744 22.2291L28.9746 14.4548C28.9746 11.862 27.0554 9.7522 24.6963 9.7522L24.6964 9.75212Z" fill="#4CAF4F"/>
<path d="M28.3114 23.6446V22.3113H33.0221L29.0102 24.7802L28.3114 23.6446ZM27.6484 23.4719H26.3151V21.2441L28.2785 22.2969L27.6484 23.4719ZM27.234 24.4758L26.2912 23.533L26.2925 23.5318L27.234 24.4758ZM25.5615 24.7131L24.2304 24.6353L24.3531 22.5368L26.1992 23.5421L25.5615 24.7131ZM25.1556 25.631L26.0989 26.5733L26.0984 26.5738L25.1556 25.631ZM22.747 24.7129L22.113 23.5399L23.9539 22.5449L24.078 24.6338L22.747 24.7129ZM21.9796 24.8872L21.8942 26.2178L21.8924 26.2177L21.9796 24.8872ZM20.6601 17.0645L19.5053 16.398L21.9934 12.0875V17.0645H20.6601ZM19.9351 18.3205L18.7791 17.656L18.7803 17.6539L19.9351 18.3205ZM17.8093 18.892L17.1464 20.0489L17.1406 20.0455L17.8093 18.892ZM17.2146 18.1169L18.5024 17.7712L18.5028 17.7727L17.2146 18.1169ZM17.3428 17.1486L16.189 16.4805L16.5741 15.8152H17.3428V17.1486ZM19.8595 12.7891L21.0738 13.3397L21.0477 13.3974L21.0161 13.4524L19.8595 12.7891ZM19.9674 12.5474L18.7491 12.0056L18.7491 12.0056L19.9674 12.5474ZM20.0741 12.2736L21.3309 12.7188L21.3308 12.7191L20.0741 12.2736ZM29.7266 14.4546L28.3932 14.4546V14.4546H29.7266ZM29.7268 22.2289L31.0601 22.2289V22.2289H29.7268ZM29.3129 23.2302L30.2565 24.1722L30.2557 24.1731L29.3129 23.2302ZM28.3114 23.6447V24.978H23.6006L27.6126 22.5091L28.3114 23.6447ZM24.6964 9.75212V8.41879H26.464L25.9784 10.1184L24.6964 9.75212ZM20.7831 12.5251L22.0399 12.9704L22.0388 12.9732L20.7831 12.5251ZM20.6549 12.8531L21.873 13.3954L21.8727 13.3961L20.6549 12.8531ZM20.477 13.2091L21.4811 14.0864L20.6088 15.0847L19.6055 14.2182L20.477 13.2091ZM20.4718 13.2046L19.2937 12.5802L20.0772 11.102L21.3433 12.1955L20.4718 13.2046ZM17.9941 17.525L19.1487 18.1918L19.1481 18.1928L17.9941 17.525ZM17.9411 17.922L16.6536 18.2686L16.6525 18.2644L17.9411 17.922ZM18.1847 18.2398L17.5206 19.396L17.5181 19.3945L18.1847 18.2398ZM19.283 17.9448L18.1266 17.2811L18.1284 17.278L19.283 17.9448ZM20.7105 15.4734L19.5559 14.8065L19.5568 14.8051L20.7105 15.4734ZM21.1337 15.2986L20.7886 16.5865L20.7853 16.5856L21.1337 15.2986ZM22.0289 24.1368L21.9585 25.4682L21.9499 25.4678L21.9414 25.4672L22.0289 24.1368ZM22.5451 23.9443L23.4879 24.8871L23.4871 24.8879L22.5451 23.9443ZM23.4913 18.3938H24.8246V18.3939L23.4913 18.3938ZM23.4911 24.6302H22.1577V24.6301L23.4911 24.6302ZM24.6238 25.0997L25.5675 26.0417L25.5657 26.0435L24.6238 25.0997ZM25.57 18.3938H26.9033V18.3939L25.57 18.3938ZM25.5697 23.4168H24.2364V23.4167L25.5697 23.4168ZM26.7027 23.9438L27.6447 24.8875L27.6438 24.8883L26.7027 23.9438ZM27.6489 18.3936H28.9822V18.3937L27.6489 18.3936ZM27.6484 22.2291H26.3151V22.2289L27.6484 22.2291ZM28.7805 22.6989L29.7233 23.6417L29.7224 23.6426L28.7805 22.6989ZM28.9744 22.2291H27.641V22.2291L28.9744 22.2291ZM28.9746 14.4548H30.3079V14.4548L28.9746 14.4548ZM24.6963 9.7522V11.0855H22.9287L23.4143 9.38591L24.6963 9.7522ZM28.3114 23.6446V24.978C27.8204 24.978 27.3821 24.8421 27.0184 24.647L27.6484 23.4719L28.2785 22.2969C28.2957 22.3061 28.3067 22.3096 28.311 22.3108C28.3148 22.3118 28.3143 22.3113 28.3114 22.3113V23.6446ZM27.6484 23.4719H28.9818V23.4748H27.6484H26.3151V23.4719H27.6484ZM27.6484 23.4748H28.9818C28.9818 24.2061 28.6948 24.9021 28.1756 25.4199L27.234 24.4758L26.2925 23.5318C26.302 23.5223 26.3067 23.5141 26.3095 23.5075C26.3122 23.5008 26.3151 23.4905 26.3151 23.4748H27.6484ZM27.234 24.4758L28.1768 25.4187C27.6594 25.9361 26.9647 26.2236 26.233 26.2236V24.8903V23.5569C26.2482 23.5569 26.2583 23.5541 26.2652 23.5513C26.272 23.5485 26.2808 23.5434 26.2912 23.533L27.234 24.4758ZM26.233 24.8903V26.2236C25.7356 26.2236 25.2918 26.0844 24.9238 25.884L25.5615 24.7131L26.1992 23.5421C26.2165 23.5516 26.2275 23.5552 26.2319 23.5564C26.2356 23.5574 26.2353 23.5569 26.233 23.5569V24.8903ZM25.5615 24.7131L26.8925 24.7909C26.8542 25.4472 26.5879 26.0837 26.0989 26.5733L25.1556 25.631L24.2122 24.6887C24.2172 24.6837 24.2201 24.6794 24.2225 24.6738C24.2251 24.6678 24.2292 24.6556 24.2304 24.6353L25.5615 24.7131ZM25.1556 25.631L26.0984 26.5738C25.5808 27.0913 24.8861 27.3787 24.1542 27.3787V26.0454V24.7121C24.1697 24.7121 24.1799 24.7093 24.1867 24.7064C24.1935 24.7036 24.2023 24.6986 24.2127 24.6882L25.1556 25.631ZM24.1542 26.0454V27.3787C22.6822 27.3787 21.5011 26.2234 21.416 24.7919L22.747 24.7129L24.078 24.6338C24.0793 24.6565 24.0886 24.6764 24.105 24.692C24.113 24.6997 24.1212 24.7046 24.1282 24.7075C24.1344 24.71 24.1423 24.7121 24.1542 24.7121V26.0454ZM22.747 24.7129L23.381 25.8858C22.9503 26.1186 22.4397 26.2528 21.8942 26.2178L21.9796 24.8872L22.0651 23.5566C22.0651 23.5566 22.068 23.5569 22.075 23.5552C22.0825 23.5535 22.0956 23.5493 22.113 23.5399L22.747 24.7129ZM21.9796 24.8872L21.8924 26.2177C20.412 26.1206 19.3267 24.8616 19.3267 23.4312H20.6601H21.9934C21.9934 23.4763 22.0098 23.511 22.0303 23.5336C22.0503 23.5557 22.0638 23.5565 22.0669 23.5567L21.9796 24.8872ZM20.6601 23.4312H19.3267V17.0645H20.6601H21.9934V23.4312H20.6601ZM20.6601 17.0645L21.8148 17.7311L21.0899 18.987L19.9351 18.3205L18.7803 17.6539L19.5053 16.398L20.6601 17.0645ZM19.9351 18.3205L21.0911 18.9849C20.5759 19.8813 19.6169 20.4325 18.5856 20.4325V19.0991V17.7658C18.6673 17.7658 18.7421 17.7205 18.7791 17.656L19.9351 18.3205ZM18.5856 19.0991V20.4325C18.0814 20.4325 17.585 20.3002 17.1464 20.0489L17.8093 18.892L18.4722 17.7352C18.508 17.7557 18.5475 17.7658 18.5856 17.7658V19.0991ZM17.8093 18.892L17.1406 20.0455C16.5419 19.6985 16.1062 19.1337 15.9265 18.4611L17.2146 18.1169L18.5028 17.7727C18.5016 17.7682 18.4983 17.7601 18.4918 17.7518C18.4855 17.7435 18.4796 17.7394 18.478 17.7385L17.8093 18.892ZM17.2146 18.1169L15.9269 18.4626C15.7465 17.7904 15.8409 17.0815 16.189 16.4805L17.3428 17.1486L18.4967 17.8167C18.4986 17.8134 18.5019 17.8058 18.5033 17.795C18.5048 17.7842 18.5036 17.7756 18.5024 17.7712L17.2146 18.1169ZM17.3428 17.1486V15.8152C16.6888 15.9867 16.1992 16.463 16.1955 16.4692C16.1943 16.4712 16.1925 16.4743 16.1919 16.4753C16.1916 16.4759 16.191 16.4769 16.1909 16.4772C16.1907 16.4774 16.1905 16.4778 16.1904 16.4779C16.1902 16.4782 16.1903 16.4781 16.1908 16.4773C16.1917 16.4757 16.1932 16.4731 16.1954 16.4693C16.1998 16.4617 16.2064 16.4503 16.2151 16.4353C16.2325 16.4052 16.258 16.3611 16.2905 16.3047C16.3557 16.1919 16.4489 16.0306 16.5612 15.8361C16.7858 15.4471 17.0868 14.9259 17.3923 14.3967C18.0043 13.3367 18.6318 12.2497 18.7029 12.1257L19.8595 12.7891L21.0161 13.4524C20.9425 13.5808 20.3117 14.6735 19.7017 15.7301C19.3961 16.2593 19.0951 16.7806 18.8704 17.1697C18.7581 17.3642 18.6648 17.5257 18.5996 17.6385C18.567 17.6949 18.5414 17.7393 18.524 17.7695C18.5152 17.7846 18.5085 17.7963 18.5038 17.8043C18.5016 17.8083 18.4997 17.8115 18.4983 17.8139C18.4976 17.815 18.4968 17.8164 18.4961 17.8177C18.4958 17.8182 18.4949 17.8197 18.4939 17.8214C18.4933 17.8226 18.4914 17.8257 18.4901 17.8279C18.4864 17.8341 17.9969 18.3105 17.3428 18.4819V17.1486ZM19.8595 12.7891L18.6452 12.2385C18.6598 12.2061 18.7063 12.1017 18.7491 12.0056L19.9674 12.5474L21.1857 13.0892C21.1451 13.1805 21.0936 13.2962 21.0738 13.3397L19.8595 12.7891ZM19.9674 12.5474L18.7491 12.0056C18.7676 11.9639 18.7882 11.9106 18.8174 11.8281L20.0741 12.2736L21.3308 12.7191C21.2946 12.8213 21.2468 12.9518 21.1857 13.0892L19.9674 12.5474ZM20.0741 12.2736L18.8173 11.8284C19.7204 9.27893 21.9934 7.66665 24.6963 7.66665V8.99998V10.3333C23.1274 10.3333 21.8584 11.2297 21.3309 12.7188L20.0741 12.2736ZM24.6963 8.99998V7.66665C28.306 7.66665 31.0599 10.8142 31.0599 14.4546H29.7266H28.3932C28.3932 12.0795 26.634 10.3333 24.6963 10.3333V8.99998ZM29.7266 14.4546L31.0599 14.4545L31.0601 22.2289L29.7268 22.2289L28.3935 22.229L28.3932 14.4546L29.7266 14.4546ZM29.7268 22.2289H31.0601C31.0601 22.9601 30.7733 23.6545 30.2565 24.1722L29.3129 23.2302L28.3692 22.2883C28.3797 22.2778 28.3849 22.2688 28.3877 22.2618C28.3906 22.2548 28.3935 22.2445 28.3935 22.2289H29.7268ZM29.3129 23.2302L30.2557 24.1731C29.7381 24.6906 29.0433 24.978 28.3114 24.978V23.6447V22.3113C28.327 22.3113 28.3373 22.3085 28.3441 22.3057C28.3509 22.3029 28.3596 22.2978 28.37 22.2874L29.3129 23.2302ZM28.3114 23.6447L27.6126 22.5091L27.6126 22.5091L28.3114 23.6446L29.0102 24.7802L29.0102 24.7802L28.3114 23.6447ZM24.6964 9.75212V11.0855C23.4287 11.0855 22.4674 11.7636 22.0399 12.9704L20.7831 12.5251L19.5263 12.0799C20.329 9.81396 22.2934 8.41879 24.6964 8.41879V9.75212ZM20.7831 12.5251L22.0388 12.9732C21.9968 13.0912 21.9421 13.2402 21.873 13.3954L20.6549 12.8531L19.4368 12.3108C19.4634 12.2512 19.4907 12.1796 19.5273 12.077L20.7831 12.5251ZM20.6549 12.8531L21.8727 13.3961C21.8116 13.533 21.7605 13.6487 21.7213 13.727C21.697 13.7756 21.6577 13.8505 21.6007 13.9335C21.5429 14.0176 21.4857 14.081 21.4811 14.0864L20.477 13.2091L19.473 12.3318C19.4761 12.3282 19.4751 12.3294 19.4735 12.3312C19.4715 12.3336 19.4663 12.3396 19.4595 12.3479C19.4524 12.3565 19.4436 12.3676 19.4336 12.3808C19.4235 12.3941 19.4132 12.4082 19.403 12.4231C19.3821 12.4535 19.366 12.4802 19.3546 12.5003C19.3439 12.5191 19.3373 12.5321 19.3359 12.535C19.3344 12.5381 19.3353 12.5363 19.3398 12.5266C19.3442 12.5172 19.3504 12.5036 19.3594 12.4839C19.3682 12.4644 19.3788 12.4408 19.3918 12.4117C19.4048 12.3826 19.4197 12.3492 19.4371 12.3101L20.6549 12.8531ZM20.477 13.2091L19.6055 14.2182L19.6004 14.2137L20.4718 13.2046L21.3433 12.1955L21.3485 12.2L20.477 13.2091ZM20.4718 13.2046L21.65 13.829C21.4413 14.2227 20.8455 15.2538 19.1487 18.1918L17.9941 17.525L16.8395 16.8582C18.5602 13.8789 19.1151 12.9173 19.2937 12.5802L20.4718 13.2046ZM17.9941 17.525L19.1481 18.1928C19.2548 18.0084 19.2845 17.786 19.2297 17.5795L17.9411 17.922L16.6525 18.2644C16.526 17.7885 16.5929 17.2842 16.84 16.8572L17.9941 17.525ZM17.9411 17.922L19.2285 17.5754C19.1737 17.3716 19.0388 17.1933 18.8513 17.0851L18.1847 18.2398L17.5181 19.3945C17.0897 19.1473 16.781 18.7419 16.6536 18.2686L17.9411 17.922ZM18.1847 18.2398L18.8488 17.0836C18.697 16.9965 18.5494 16.997 18.4475 17.0245C18.3459 17.0518 18.2157 17.1259 18.1266 17.2811L19.283 17.9448L20.4394 18.6085C19.8583 19.621 18.5303 19.976 17.5206 19.396L18.1847 18.2398ZM19.283 17.9448L18.1284 17.278L19.5559 14.8065L20.7105 15.4734L21.8651 16.1403L20.4376 18.6117L19.283 17.9448ZM20.7105 15.4734L19.5568 14.8051C19.9419 14.1402 20.7279 13.8075 21.482 14.0116L21.1337 15.2986L20.7853 16.5856C21.2086 16.7002 21.6497 16.5121 21.8643 16.1417L20.7105 15.4734ZM21.1337 15.2986L21.4787 14.0107C22.2267 14.2111 22.7457 14.8889 22.7457 15.6619H21.4124H20.079C20.079 16.0946 20.3695 16.4742 20.7886 16.5865L21.1337 15.2986ZM21.4124 15.6619H22.7457V23.4314H21.4124H20.079V15.6619H21.4124ZM21.4124 23.4314H22.7457C22.7457 23.2795 22.6894 23.1413 22.597 23.0356C22.5048 22.9301 22.342 22.8211 22.1165 22.8063L22.0289 24.1368L21.9414 25.4672C20.819 25.3933 20.079 24.4156 20.079 23.4314H21.4124ZM22.0289 24.1368L22.0994 22.8053C21.9418 22.797 21.7494 22.8547 21.6032 23.0006L22.5451 23.9443L23.4871 24.8879C23.0662 25.3081 22.5081 25.4973 21.9585 25.4682L22.0289 24.1368ZM22.5451 23.9443L21.6023 23.0015C21.4758 23.128 21.4055 23.3014 21.4055 23.4752H22.7388H24.0721C24.0721 24.0048 23.8642 24.5108 23.4879 24.8871L22.5451 23.9443ZM22.7388 23.4752H21.4055V18.3938H22.7388H24.0721V23.4752H22.7388ZM22.7388 18.3938H21.4055C21.4055 17.4496 22.1709 16.6842 23.115 16.6842V18.0176V19.3509C23.6436 19.3509 24.0721 18.9224 24.0721 18.3938H22.7388ZM23.115 18.0176V16.6842C24.0587 16.6842 24.8246 17.4489 24.8246 18.3938H23.4913H22.158C22.158 18.9227 22.587 19.3509 23.115 19.3509V18.0176ZM23.4913 18.3938L24.8246 18.3939L24.8244 24.6302L23.4911 24.6302L22.1577 24.6301L22.158 18.3938L23.4913 18.3938ZM23.4911 24.6302H24.8244C24.8244 24.2595 24.525 23.9601 24.1543 23.9601V25.2934V26.6267C23.0523 26.6267 22.1577 25.7322 22.1577 24.6302H23.4911ZM24.1543 25.2934V23.9601C23.9807 23.9601 23.8082 24.03 23.6819 24.156L24.6238 25.0997L25.5657 26.0435C25.1892 26.4192 24.6831 26.6267 24.1543 26.6267V25.2934ZM24.6238 25.0997L23.6801 24.1578C23.5541 24.2841 23.4841 24.4567 23.4841 24.6302H24.8175H26.1508C26.1508 25.159 25.9433 25.6652 25.5675 26.0417L24.6238 25.0997ZM24.8175 24.6302H23.4841V18.3938H24.8175H26.1508V24.6302H24.8175ZM24.8175 18.3938H23.4841C23.4841 17.4502 24.2488 16.6842 25.1937 16.6842V18.0176V19.3509C25.7226 19.3509 26.1508 18.9218 26.1508 18.3938H24.8175ZM25.1937 18.0176V16.6842C26.1374 16.6842 26.9033 17.4489 26.9033 18.3938H25.57H24.2366C24.2366 18.9227 24.6657 19.3509 25.1937 19.3509V18.0176ZM25.57 18.3938L26.9033 18.3939L26.9031 23.4168L25.5697 23.4168L24.2364 23.4167L24.2366 18.3938L25.57 18.3938ZM25.5697 23.4168H26.9031V23.4752H25.5697H24.2364V23.4168H25.5697ZM25.5697 23.4752H26.9031C26.9031 23.1036 26.603 22.8048 26.2332 22.8048V24.1381V25.4715C25.1316 25.4715 24.2364 24.5776 24.2364 23.4752H25.5697ZM26.2332 24.1381V22.8048C26.056 22.8048 25.8845 22.8769 25.7617 22.9992L26.7027 23.9438L27.6438 24.8883C27.2694 25.2614 26.7652 25.4715 26.2332 25.4715V24.1381ZM26.7027 23.9438L25.7608 23.0001C25.6333 23.1274 25.5631 23.3013 25.5631 23.4749H26.8964H28.2297C28.2297 24.0043 28.0219 24.5109 27.6447 24.8875L26.7027 23.9438ZM26.8964 23.4749H25.5631V18.3936H26.8964H28.2297V23.4749H26.8964ZM26.8964 18.3936H25.5631C25.5631 17.4499 26.3277 16.684 27.2726 16.684V18.0173V19.3506C27.8015 19.3506 28.2297 18.9216 28.2297 18.3936H26.8964ZM27.2726 18.0173V16.684C28.2163 16.684 28.9822 17.4486 28.9822 18.3936H27.6489H26.3156C26.3156 18.9224 26.7446 19.3506 27.2726 19.3506V18.0173ZM27.6489 18.3936L28.9822 18.3937L28.9818 22.2293L27.6484 22.2291L26.3151 22.2289L26.3156 18.3934L27.6489 18.3936ZM27.6484 22.2291H28.9818C28.9818 21.8592 28.683 21.5592 28.3114 21.5592V22.8925V24.2259C27.209 24.2259 26.3151 23.3307 26.3151 22.2291H27.6484ZM28.3114 22.8925V21.5592C28.1365 21.5592 27.9639 21.63 27.8385 21.7552L28.7805 22.6989L29.7224 23.6426C29.3472 24.017 28.842 24.2259 28.3114 24.2259V22.8925ZM28.7805 22.6989L27.8376 21.7561C27.7107 21.883 27.641 22.0563 27.641 22.2291H28.9744H30.3077C30.3077 22.7572 30.1009 23.2641 29.7233 23.6417L28.7805 22.6989ZM28.9744 22.2291L27.641 22.2291L27.6413 14.4547L28.9746 14.4548L30.3079 14.4548L30.3077 22.2291L28.9744 22.2291ZM28.9746 14.4548H27.6413C27.6413 12.4769 26.2031 11.0855 24.6963 11.0855V9.7522V8.41887C27.9077 8.41887 30.3079 11.2471 30.3079 14.4548H28.9746ZM24.6963 9.7522L23.4143 9.38591L23.4143 9.38583L24.6964 9.75212L25.9784 10.1184L25.9784 10.1185L24.6963 9.7522Z" fill="#4CAF4F" mask="url(#path-1-inside-1_303_1477)"/>
<path d="M11.9631 26.2139L11.8879 26.1738C11.8704 26.2054 11.8205 26.2939 11.7473 26.4258C11.7733 26.4388 11.7991 26.451 11.8254 26.4609C11.8703 26.3801 11.9165 26.2979 11.9631 26.2139Z" fill="#4CAF4F" stroke="#4CAF4F" stroke-width="1.33333"/>
<path d="M27.8259 28.0758L27.8279 28.0768C27.8303 28.0785 27.8322 28.0809 27.8347 28.0826C27.8316 28.0805 27.8289 28.0779 27.8259 28.0758Z" fill="#4CAF4F" stroke="#4CAF4F" stroke-width="1.33333"/>
</svg>
