<svg width="48" height="48" viewBox="0 0 48 48" fill="none" xmlns="http://www.w3.org/2000/svg">
<path d="M16.5 8.73596C18.8588 8.73596 21.1611 9.46175 23.0938 10.8141C25.026 12.1663 26.4956 14.0799 27.3037 16.2955C28.1118 18.5115 28.2196 20.9228 27.6113 23.2018C27.003 25.4807 25.7082 27.5173 23.9033 29.0358L23.2959 29.5475L24.0186 29.8746C26.9919 31.2202 29.5509 33.3373 31.4287 36.0065L31.4355 36.0162L31.4434 36.026C31.5892 36.2128 31.6954 36.4277 31.7559 36.6569C31.8012 36.8287 31.8206 37.0064 31.8125 37.1832L31.7949 37.36C31.7688 37.5359 31.7159 37.7064 31.6387 37.8658L31.5537 38.0211C31.4293 38.2229 31.2651 38.3973 31.0713 38.5338C30.9259 38.6362 30.7663 38.7161 30.5977 38.7701L30.4258 38.8151C30.1939 38.8641 29.9541 38.8662 29.7217 38.8199C29.4893 38.7736 29.2686 38.6796 29.0732 38.5455C28.878 38.4114 28.7116 38.2389 28.585 38.0387L28.5791 38.0289L28.5723 38.0192L28.3115 37.6598C27.0727 36.0035 25.4991 34.6265 23.6934 33.6178L23.3027 33.4069C21.2016 32.3148 18.868 31.7448 16.5 31.7448C14.132 31.7448 11.7984 32.3148 9.69727 33.4069C7.72749 34.4307 6.01588 35.8851 4.68848 37.6598L4.42871 38.0192L4.42773 38.0201C4.30779 38.1924 4.15755 38.3416 3.98535 38.4596L3.80566 38.567C3.61931 38.664 3.41743 38.7261 3.20996 38.7506L3.00195 38.7623H2.99805C2.68414 38.7633 2.37683 38.6783 2.10938 38.5172L1.99707 38.443L1.99512 38.442L1.8584 38.3346C1.55464 38.0715 1.34865 37.7105 1.2793 37.3112C1.20008 36.8547 1.30599 36.3856 1.57227 36.0065L1.57129 36.0055C3.44908 33.3365 6.00835 31.2201 8.98145 29.8746L9.7041 29.5475L9.09668 29.0358C7.29184 27.5173 5.99698 25.4806 5.38867 23.2018C4.8184 21.0653 4.87729 18.8126 5.55273 16.7135L5.69629 16.2955C6.45392 14.2183 7.79312 12.4064 9.5498 11.0739L9.90723 10.8141C11.8398 9.46177 14.1412 8.73598 16.5 8.73596ZM28.5381 8.69983L28.666 9.18323L28.6748 9.18127C29.5586 8.92967 30.4693 8.78701 31.3867 8.75647L31.7803 8.74963H31.7832C33.9957 8.74328 36.1597 9.3765 38.0166 10.568L38.3838 10.8141C40.1988 12.0799 41.6068 13.8412 42.4424 15.8834L42.6016 16.2955C43.3601 18.3741 43.5008 20.6245 43.0117 22.776L42.9053 23.2047C42.294 25.4844 40.9954 27.5209 39.1855 29.0358L38.5752 29.5465L39.2998 29.8746C42.0872 31.136 44.5104 33.0755 46.3496 35.5123L46.71 36.0065L46.7119 36.0094C46.8454 36.1961 46.9402 36.4078 46.9912 36.6315C47.0295 36.7992 47.0427 36.9713 47.0303 37.1422L47.0098 37.3131C46.9705 37.539 46.8861 37.7546 46.7627 37.9479C46.67 38.093 46.5565 38.2234 46.4258 38.3346L46.29 38.4391L46.2842 38.443C45.9922 38.6517 45.6421 38.7625 45.2832 38.7614C45.073 38.76 44.8655 38.7219 44.6699 38.6481L44.4775 38.5631C44.2908 38.4659 44.1239 38.3356 43.9834 38.1803L43.8516 38.0172C42.4882 36.0833 40.681 34.5042 38.5811 33.4137C36.612 32.3912 34.4394 31.8263 32.2256 31.7574L31.7822 31.7496H31.7812C31.3752 31.7496 30.9833 31.6093 30.6719 31.3541L30.5439 31.2379C30.2158 30.9097 30.0312 30.4638 30.0312 29.9996C30.0313 29.5937 30.1727 29.2025 30.4277 28.8912L30.5439 28.7623C30.8721 28.4343 31.3172 28.2497 31.7812 28.2496C33.7703 28.2496 35.6829 27.509 37.1504 26.1803L37.4385 25.9069C38.9387 24.4066 39.7812 22.3713 39.7812 20.2496C39.7811 18.2607 39.0406 16.3479 37.7119 14.8805L37.4385 14.5934C35.9382 13.0931 33.903 12.2496 31.7812 12.2496C31.1414 12.2485 30.5042 12.3264 29.8838 12.4801L29.6191 12.5504L29.6133 12.5524C29.4467 12.6021 29.2738 12.6259 29.1006 12.6246L28.9268 12.6149C28.7535 12.5963 28.5844 12.5523 28.4248 12.484L28.2695 12.4078C28.1171 12.3239 27.9782 12.2179 27.8574 12.0934L27.7422 11.9635C27.5979 11.7817 27.4916 11.5726 27.4287 11.3492C27.3815 11.1816 27.3593 11.0081 27.3633 10.8346L27.376 10.6617C27.3972 10.4889 27.4439 10.3202 27.5146 10.1617L27.5938 10.0074C27.7088 9.80591 27.8629 9.62935 28.0469 9.48792C28.2308 9.34655 28.4408 9.24262 28.665 9.18323L28.5381 8.69983ZM18.0605 12.4039C16.5088 12.0953 14.9002 12.2535 13.4385 12.859C12.0681 13.4267 10.8845 14.3633 10.0176 15.5621L9.84863 15.8053C8.96966 17.1208 8.50008 18.6675 8.5 20.2496C8.5 22.3712 9.34264 24.4066 10.8428 25.9069C12.343 27.4071 14.3783 28.2496 16.5 28.2496C17.9833 28.2496 19.4356 27.8379 20.6953 27.0621L20.9443 26.902C22.2599 26.0229 23.2861 24.773 23.8916 23.3112C24.4591 21.9409 24.6331 20.4416 24.3984 18.9811L24.3467 18.6891C24.0572 17.2342 23.3691 15.8904 22.3623 14.8063L22.1572 14.5934C21.1084 13.5446 19.7898 12.8096 18.3506 12.4674L18.0605 12.4039Z" fill="#4CAF4F" stroke="#4CAF4F"/>
</svg>
