<svg width="48" height="48" viewBox="0 0 48 48" fill="none" xmlns="http://www.w3.org/2000/svg">
<path d="M9.75 8H38.25C39.8042 8 41.2988 8.57882 42.4453 9.61719L42.6689 9.83105C43.841 11.0032 44.5 12.5924 44.5 14.25V33.75C44.5 35.3042 43.9212 36.7988 42.8828 37.9453L42.6689 38.1689C41.4968 39.341 39.9076 40 38.25 40H9.75C8.19581 40 6.70125 39.4212 5.55469 38.3828L5.33105 38.1689C4.15895 36.9968 3.5 35.4076 3.5 33.75V14.25C3.5 12.6958 4.07882 11.2012 5.11719 10.0547L5.33105 9.83105C6.42998 8.73213 7.89554 8.08437 9.44043 8.00781L9.75 8ZM5.5 33.75C5.5 34.8068 5.89363 35.8229 6.59961 36.6025L6.74512 36.7549C7.54215 37.5519 8.62283 38 9.75 38H38.25C39.3068 38 40.3229 37.6064 41.1025 36.9004L41.2549 36.7549C42.0519 35.9579 42.5 34.8772 42.5 33.75V19H5.5V33.75ZM31.5 29H36C36.2652 29 36.5195 29.1054 36.707 29.293C36.8946 29.4805 37 29.7348 37 30C37 30.2652 36.8946 30.5195 36.707 30.707C36.5195 30.8946 36.2652 31 36 31H31.5C31.2348 31 30.9805 30.8946 30.793 30.707C30.6054 30.5195 30.5 30.2652 30.5 30C30.5 29.7348 30.6054 29.4805 30.793 29.293C30.9805 29.1054 31.2348 29 31.5 29ZM9.75 10C8.62283 10 7.54215 10.4481 6.74512 11.2451C5.94809 12.0421 5.5 13.1228 5.5 14.25V17H42.5V14.25C42.5 13.1228 42.0519 12.0421 41.2549 11.2451C40.4579 10.4481 39.3772 10 38.25 10H9.75Z" fill="#4CAF4F" stroke="#4CAF4F"/>
</svg>
