<svg width="66" height="56" viewBox="0 0 66 56" fill="none" xmlns="http://www.w3.org/2000/svg">
<path d="M65.5 38C65.5 47.9411 57.4411 56 47.5 56L20.5 56C17.7386 56 15.5 53.7614 15.5 51L15.5 17C15.5 11.4772 19.9772 7 25.5 7L60.5 7C63.2614 7 65.5 9.23858 65.5 12L65.5 38Z" fill="#E8F5E9"/>
<path d="M27.4163 19.0109C27.1042 19.0109 26.8506 18.7576 26.8506 18.4452V17.4839C26.8506 17.1719 27.1038 16.9182 27.4163 16.9182C27.7283 16.9182 27.9819 17.1715 27.9819 17.4839V18.4452C27.9819 18.7576 27.7283 19.0109 27.4163 19.0109Z" fill="#103E13"/>
<path d="M25.0381 19.0109C24.7261 19.0109 24.4724 18.7576 24.4724 18.4452V17.4839C24.4724 17.1719 24.7257 16.9182 25.0381 16.9182C25.3501 16.9182 25.6038 17.1715 25.6038 17.4839V18.4452C25.6034 18.7576 25.3505 19.0109 25.0381 19.0109Z" fill="#103E13"/>
<path d="M22.6599 19.0109C22.3479 19.0109 22.0942 18.7576 22.0942 18.4452V17.4839C22.0942 17.1719 22.3475 16.9182 22.6599 16.9182C22.9719 16.9182 23.2256 17.1715 23.2256 17.4839V18.4452C23.2256 18.7576 22.9723 19.0109 22.6599 19.0109Z" fill="#103E13"/>
<path d="M27.4163 22.942C27.1042 22.942 26.8506 22.6888 26.8506 22.3763V21.4154C26.8506 21.1034 27.1038 20.8497 27.4163 20.8497C27.7283 20.8497 27.9819 21.103 27.9819 21.4154V22.3763C27.9819 22.6888 27.7283 22.942 27.4163 22.942Z" fill="#103E13"/>
<path d="M25.0381 22.942C24.7261 22.942 24.4724 22.6888 24.4724 22.3763V21.4154C24.4724 21.1034 24.7257 20.8497 25.0381 20.8497C25.3501 20.8497 25.6038 21.103 25.6038 21.4154V22.3763C25.6034 22.6888 25.3505 22.942 25.0381 22.942Z" fill="#103E13"/>
<path d="M22.6599 22.942C22.3479 22.942 22.0942 22.6888 22.0942 22.3763V21.4154C22.0942 21.1034 22.3475 20.8497 22.6599 20.8497C22.9719 20.8497 23.2256 21.103 23.2256 21.4154V22.3763C23.2256 22.6888 22.9723 22.942 22.6599 22.942Z" fill="#103E13"/>
<path d="M27.4163 26.8733C27.1042 26.8733 26.8506 26.6201 26.8506 26.3076V25.3463C26.8506 25.0343 27.1038 24.7806 27.4163 24.7806C27.7283 24.7806 27.9819 25.0339 27.9819 25.3463V26.3076C27.9819 26.6201 27.7283 26.8733 27.4163 26.8733Z" fill="#103E13"/>
<path d="M25.0381 26.8733C24.7261 26.8733 24.4724 26.6201 24.4724 26.3076V25.3463C24.4724 25.0343 24.7257 24.7806 25.0381 24.7806C25.3501 24.7806 25.6038 25.0339 25.6038 25.3463V26.3076C25.6034 26.6201 25.3505 26.8733 25.0381 26.8733Z" fill="#103E13"/>
<path d="M22.6599 26.8733C22.3479 26.8733 22.0942 26.6201 22.0942 26.3076V25.3463C22.0942 25.0343 22.3475 24.7806 22.6599 24.7806C22.9719 24.7806 23.2256 25.0339 23.2256 25.3463V26.3076C23.2256 26.6201 22.9723 26.8733 22.6599 26.8733Z" fill="#103E13"/>
<path d="M27.4163 30.8037C27.1042 30.8037 26.8506 30.5505 26.8506 30.2381V29.2767C26.8506 28.9647 27.1038 28.7111 27.4163 28.7111C27.7283 28.7111 27.9819 28.9643 27.9819 29.2767V30.2381C27.9819 30.5505 27.7283 30.8037 27.4163 30.8037Z" fill="#103E13"/>
<path d="M25.0381 30.8037C24.7261 30.8037 24.4724 30.5505 24.4724 30.2381V29.2767C24.4724 28.9647 24.7257 28.7111 25.0381 28.7111C25.3501 28.7111 25.6038 28.9643 25.6038 29.2767V30.2381C25.6034 30.5505 25.3505 30.8037 25.0381 30.8037Z" fill="#103E13"/>
<path d="M22.6599 30.8037C22.3479 30.8037 22.0942 30.5505 22.0942 30.2381V29.2767C22.0942 28.9647 22.3475 28.7111 22.6599 28.7111C22.9719 28.7111 23.2256 28.9643 23.2256 29.2767V30.2381C23.2256 30.5505 22.9723 30.8037 22.6599 30.8037Z" fill="#103E13"/>
<path d="M27.4163 34.735C27.1042 34.735 26.8506 34.4817 26.8506 34.1693V33.2084C26.8506 32.8964 27.1038 32.6427 27.4163 32.6427C27.7283 32.6427 27.9819 32.896 27.9819 33.2084V34.1693C27.9819 34.4813 27.7283 34.735 27.4163 34.735Z" fill="#103E13"/>
<path d="M25.0381 34.735C24.7261 34.735 24.4724 34.4817 24.4724 34.1693V33.2084C24.4724 32.8964 24.7257 32.6427 25.0381 32.6427C25.3501 32.6427 25.6038 32.896 25.6038 33.2084V34.1693C25.6034 34.4813 25.3505 34.735 25.0381 34.735Z" fill="#103E13"/>
<path d="M22.6599 34.735C22.3479 34.735 22.0942 34.4817 22.0942 34.1693L22.0946 33.2084C22.0946 32.8964 22.3479 32.6427 22.6603 32.6427C22.9723 32.6427 23.226 32.896 23.226 33.2084V34.1693C23.2256 34.4813 22.9723 34.735 22.6599 34.735Z" fill="#103E13"/>
<path d="M6.50047 38.6471C6.50047 38.9592 6.75372 39.2128 7.06615 39.2128H41.5139C41.8259 39.2128 42.0796 38.9596 42.0796 38.6471C42.0796 38.3351 41.8263 38.0815 41.5139 38.0815H40.4682V21.8402C40.4682 21.5281 40.215 21.2745 39.9025 21.2745L30.6668 21.2749V9.56576C30.6668 9.36774 30.5635 9.18471 30.3946 9.08214C30.2262 8.97919 30.0156 8.97287 29.8404 9.06399L19.3401 14.531C19.1527 14.6284 19.0359 14.8217 19.0359 15.0327V25.2604H8.87388C8.56186 25.2604 8.3082 25.5137 8.3082 25.8261V38.0816H7.06489C6.75287 38.0812 6.5 38.3344 6.5 38.6468L6.50047 38.6471ZM30.667 29.8422H39.3374V38.0819L30.667 38.0815V29.8422ZM30.667 25.9113H39.3374V28.7113L30.667 28.7109V25.9113ZM30.667 22.4056H39.3374V24.7808H30.667V22.4056ZM20.1667 15.3762L29.5353 10.4982V38.081H20.1667V15.3762ZM12.2359 33.5635C12.2359 32.3895 13.166 31.4341 14.3096 31.4341C15.4531 31.4341 16.3837 32.3891 16.3837 33.5635V38.0817H12.2359V33.5635ZM9.43952 26.3916H19.0358V38.0815H17.515V33.5633C17.515 31.7657 16.0776 30.303 14.3096 30.303C12.5424 30.303 11.105 31.7653 11.105 33.5633V38.0815H9.43952V26.3916Z" fill="#103E13"/>
</svg>
